<svg width="469.8" height="132.29568" viewBox="0 0 125 35.2" class="css-1j8o68f"><defs id="SvgjsDefs2831"></defs><g id="SvgjsG2832" featurekey="2ou6gm-0" transform="matrix(0.4000000059604645,0,0,0.4000000059604645,0,-2.4000000000000004)" fill="#0fec90"><g xmlns="http://www.w3.org/2000/svg"><path d="M41.751,59.098v6.119L20,55.789v-5.232l21.751-9.427v6.162l-15.156,5.839L41.751,59.098z"></path><path d="M55.2,41l-6.055,24.93c-0.201,0.821-0.377,1.471-0.529,1.946c-0.151,0.476-0.382,0.849-0.691,1.112   c-0.31,0.268-0.761,0.4-1.352,0.4c-1.47,0-2.206-0.636-2.206-1.902c0-0.332,0.145-1.16,0.433-2.486l6.033-24.93   c0.317-1.326,0.619-2.234,0.907-2.724c0.289-0.49,0.851-0.735,1.688-0.735c0.721,0,1.271,0.173,1.653,0.519   c0.382,0.346,0.573,0.822,0.573,1.427C55.654,39.004,55.502,39.818,55.2,41z"></path><path d="M80,55.789L58.249,65.26v-6.119l15.2-5.967l-15.2-5.882v-6.076L80,50.6V55.789z"></path></g><path xmlns="http://www.w3.org/2000/svg" d="M94,6H6c-3.313,0-6,2.687-6,6v76c0,3.313,2.687,6,6,6h88c3.314,0,6-2.688,6-6V12C100,8.686,97.314,6,94,6z M79,10  c2.205,0,4,1.794,4,4s-1.795,4-4,4s-4-1.794-4-4S76.795,10,79,10z M68,10c2.205,0,4,1.794,4,4s-1.795,4-4,4s-4-1.794-4-4  S65.795,10,68,10z M94,88H6V22h88V88z M90,18c-2.205,0-4-1.794-4-4s1.795-4,4-4s4,1.794,4,4S92.205,18,90,18z"></path></g><g id="SvgjsG2833" featurekey="kZnDdN-0" transform="matrix(2.640129804611206,0,0,2.640129804611206,59.78878918111917,-18.487408516799423)" fill="#070808"><path d="M8.72 17.52 l-4.5 0 l-0.88 2.48 l-3.26 0 l4.9 -12.24 l3 0 l4.9 12.24 l-3.28 0 z M5.2 14.74 l2.54 0 l-1.26 -3.56 z M21.42 7.76 l3.28 0 l-4.9 12.24 l-3 0 l-4.9 -12.24 l3.26 0 l3.14 8.82 z"></path></g></svg>