<svg width="530" height="656" viewBox="0 0 275 340.1534951180478" class="css-1j8o68f">
<g id="SvgjsG1422" featurekey="symbolFeature-0" transform="matrix(0.30167501072544517,0,0,0.30167501072544517,-71.3717558980742,-10.378674961010933)" fill="rgb(255, 238, 0)"><g xmlns="http://www.w3.org/2000/svg"><path d="M790.5,380.7h-23c-7.7,0-14,6.3-14,14v22.9c0,7.7,6.3,14,14,14h23c7.7,0,14-6.3,14-14v-22.9   C804.5,387,798.2,380.7,790.5,380.7z M789.1,416.2h-20.3V396h20.3V416.2z"></path><path d="M705.5,380.7h-23c-7.7,0-14,6.3-14,14v22.9c0,7.7,6.3,14,14,14h23c7.7,0,14-6.3,14-14v-22.9   C719.5,387,713.2,380.7,705.5,380.7z M704.2,416.2h-20.3V396h20.3V416.2z"></path><path d="M790.5,295.8h-23c-7.7,0-14,6.3-14,14.1v22.9c0,7.7,6.3,14,14,14h23c7.7,0,14-6.3,14-14v-22.9   C804.5,302.1,798.2,295.8,790.5,295.8z M789.1,331.4h-20.3v-20.3h20.3V331.4z"></path><path d="M705.5,295.8h-23c-7.7,0-14,6.3-14,14.1v22.9c0,7.7,6.3,14,14,14h23c7.7,0,14-6.3,14-14v-22.9   C719.5,302.1,713.2,295.8,705.5,295.8z M704.2,331.4h-20.3v-20.3h20.3V331.4z"></path><path d="M597.5,346.7h22.9c7.8,0,14.1-6.3,14.1-14v-22.9c0-7.7-6.3-14.1-14.1-14.1h-22.9c-7.7,0-14,6.3-14,14.1v22.9   C583.5,340.5,589.8,346.7,597.5,346.7z M598.9,311.1h20.3v20.3h-20.3V311.1z"></path><path d="M800.4,263.8c13,0,23.6-10.6,23.6-23.6v-58.7c0-13-10.6-23.6-23.6-23.6H587.7c-13,0-23.6,10.6-23.6,23.6v58.7   c0,13,10.6,23.6,23.6,23.6H800.4z M579.4,240.2v-58.7c0-4.6,3.7-8.3,8.3-8.3h212.7c4.6,0,8.3,3.7,8.3,8.3v58.7   c0,4.6-3.7,8.3-8.3,8.3H587.7C583.1,248.5,579.4,244.8,579.4,240.2z"></path><path d="M1056.3,290.2c-1.8-1.8-4.3-2.6-6.7-2.2l-146.5,21.5c-3,0.4-5.4,2.5-6.4,5.3c-0.9,2.8-0.2,6,1.9,8.1l30.6,30.6l-57.1,57   V158.6c0-31.9-26-57.9-58-57.9H573.8c-32,0-58,26-58,57.9v283.1L331.7,625.5c-1.5,1.5-2.3,3.5-2.3,5.6s0.8,4.1,2.3,5.6l52.5,52.4   c1.5,1.5,3.6,2.3,5.6,2.3s4-0.8,5.6-2.3L591,493.9l157,156.7c1.5,1.5,3.5,2.3,5.6,2.3s4.1-0.8,5.6-2.3L993,417.1l30.6,30.6   c2.1,2.1,5.2,2.9,8.1,1.9c2.8-0.9,4.9-3.4,5.3-6.3l21.6-146.3C1058.9,294.5,1058.1,292,1056.3,290.2z M531.1,158.6   c0-23.5,19.2-42.6,42.7-42.6h240.3c23.5,0,42.7,19.1,42.7,42.6v267.2L753.5,528.9l-157-156.7c-1.5-1.5-3.5-2.3-5.6-2.3   c-2.1,0-4.1,0.8-5.6,2.3l-54.2,54.1V158.6L531.1,158.6z M1023.7,425.4l-25.1-25.1c-1.5-1.5-3.5-2.3-5.6-2.3s-4.1,0.8-5.6,2.3   L753.5,633.8l-157-156.7c-1.5-1.5-3.5-2.3-5.6-2.3c-2.1,0-4.1,0.8-5.6,2.3L389.8,672.3L348.4,631l242.5-242l157,156.7   c3.1,3.1,8.1,3.1,11.2,0l187-186.6c1.5-1.5,2.3-3.5,2.3-5.6s-0.8-4.1-2.3-5.6L921,322.8l120.4-17.7L1023.7,425.4z"></path></g></g>
</svg>


