<svg width="429.00000000000006" height="70.22663815567715" viewBox="0 0 369.89473684210526 60.551197762004534" class="looka-1j8o68f"><defs id="SvgjsDefs1989"></defs><g id="SvgjsG1990" featurekey="symbolFeature-0" transform="matrix(4.004562379119211,0,0,4.004562379119211,-4.004486952915495,-20.487211986636925)" fill="#07e026"><title xmlns="http://www.w3.org/2000/svg">Floating</title><desc xmlns="http://www.w3.org/2000/svg">Created with Sketch.</desc><g xmlns="http://www.w3.org/2000/svg" stroke="none" stroke-width="1" fill="none" fill-rule="evenodd"><g fill-rule="nonzero" fill="#07e026"><path d="M23.8374996,6.90249732 C24.0035315,7.01217879 24.049997,7.2368245 23.9413936,7.40414917 C23.8327903,7.57150947 23.6099055,7.6178338 23.4437311,7.50887137 C20.0788306,5.28822094 15.9619741,5.2868192 12.7007554,7.50606785 C10.7621067,8.82457861 8.84886572,9.48367222 6.93425997,9.48403141 C5.0194736,9.48403141 3.10360972,8.82457861 1.15881593,7.50639136 C0.994222184,7.39462545 0.950342497,7.16962123 1.06124562,7.00369765 C1.17196906,6.83741487 1.39517687,6.7931757 1.55995031,6.90497726 C5.17896408,9.35878948 8.69181892,9.35914864 12.2985425,6.90533646 C15.8045682,4.5205241 20.225851,4.51944587 23.8374996,6.90249732 Z M12.2985613,11.6744904 C12.7005946,11.4192336 13.0453328,12.0443028 12.7005946,12.2752218 C10.737481,13.590191 8.84924437,14.2531867 6.93463794,14.2531867 C5.01999553,14.2535459 3.1038081,13.5940931 1.15883474,12.2755809 C0.994240989,12.1637794 0.950361302,11.9387752 1.06126443,11.7728516 C1.17198786,11.606928 1.39519568,11.5623653 1.55996911,11.6741312 C5.18002547,14.1290223 8.46749355,14.1068905 12.2985613,11.6744904 Z M12.2985613,16.6578237 C12.7005946,16.402567 13.0453328,17.0276361 12.7005946,17.2585551 C10.737481,18.5735244 8.84924437,19.23652 6.93463794,19.23652 C5.01999553,19.2368792 3.1038081,18.5774264 1.15883474,17.2589143 C0.994240989,17.1471127 0.950361302,16.9221085 1.06126443,16.7561849 C1.17198786,16.5902613 1.39519568,16.5456986 1.55996911,16.6574645 C5.18002547,19.1123556 8.46749355,19.0902239 12.2985613,16.6578237 Z"></path><path d="M14.225,16.5 C13.0605997,16.5 12.1166667,15.556067 12.1166667,14.3916667 C12.1166667,13.2272663 13.0605997,12.2833333 14.225,12.2833333 C15.3894003,12.2833333 16.3333333,13.2272663 16.3333333,14.3916667 C16.3333333,15.556067 15.3894003,16.5 14.225,16.5 Z M14.225,15.7333333 C14.965982,15.7333333 15.5666667,15.1326487 15.5666667,14.3916667 C15.5666667,13.6506846 14.965982,13.05 14.225,13.05 C13.484018,13.05 12.8833333,13.6506846 12.8833333,14.3916667 C12.8833333,15.1326487 13.484018,15.7333333 14.225,15.7333333 Z M21.3166667,9.22530472 L21.3166667,16.1166667 C21.3166667,16.1772565 21.3026095,16.2345631 21.2775785,16.285503 C21.3032276,16.4169327 21.3166667,16.5527302 21.3166667,16.6916667 C21.3166667,17.856067 20.3727337,18.8 19.2083333,18.8 C18.043933,18.8 17.1,17.856067 17.1,16.6916667 C17.1,15.5272663 18.043933,14.5833333 19.2083333,14.5833333 C19.7180245,14.5833333 20.1854728,14.7641968 20.55,15.0652455 L20.55,9.46193575 L16.3333333,7.5157819 L16.3333333,13.8166667 C16.3333333,14.0283758 16.1617092,14.2 15.95,14.2 C15.7382908,14.2 15.5666667,14.0283758 15.5666667,13.8166667 L15.5666667,6.92482267 C15.5662974,6.90804827 15.5670323,6.89117246 15.5689103,6.87430089 C15.5820702,6.75711578 15.6473183,6.65637481 15.7408468,6.59536698 C15.8185769,6.54652782 15.9055275,6.52591068 15.9923658,6.53557701 C16.0374344,6.54068148 16.0795481,6.55322738 16.1180443,6.57203341 L21.0861293,8.86499572 C21.1552872,8.8950855 21.2138417,8.94497796 21.254633,9.00751349 C21.297565,9.07582987 21.3183276,9.14990277 21.3166667,9.22530472 Z M19.2083333,18.0333333 C19.9493154,18.0333333 20.55,17.4326487 20.55,16.6916667 C20.55,15.9506846 19.9493154,15.35 19.2083333,15.35 C18.4673513,15.35 17.8666667,15.9506846 17.8666667,16.6916667 C17.8666667,17.4326487 18.4673513,18.0333333 19.2083333,18.0333333 Z"></path></g></g></g><g id="SvgjsG1991" featurekey="nameFeature-0" transform="matrix(1.4058805789892042,0,0,1.4058805789892042,108.79459265531523,-10.819267229473503)" fill="#000000"><path d="M10.88 40 l-8.6 0 l0 -24.48 l8.6 0 c7.48 0 12.6 4.88 12.6 12.24 c0 7.56 -5.4 12.24 -12.6 12.24 z M8.28 21.08 l0 13.36 l2.6 0 c4.24 0 6.6 -2.68 6.6 -6.68 c0 -0.92 -0.12 -1.76 -0.36 -2.6 c-1.04 -2.92 -3.32 -4.08 -6.24 -4.08 l-2.6 0 z M33.2 21.16 l0 5.84 l5.6 0 c1.84 0 2.92 -1.08 2.92 -2.92 s-1.08 -2.92 -2.92 -2.92 l-5.6 0 z M42.28 30.96 c1.12 1.52 2.24 3.04 3.4 4.52 c1.12 1.48 2.24 3 3.36 4.52 l-7.32 0 c-1.44 -1.92 -2.84 -3.84 -4.24 -5.76 c-1.4 -1.88 -2.84 -3.8 -4.28 -5.72 l0 11.48 l-6 0 l0 -24.48 l11.6 0 c4.56 0 8.44 3.48 8.44 8.08 c0 3.24 -2 6.08 -4.96 7.36 z M66.44 15.52 l6 0 l0 14.48 c0 6.36 -4.56 10.2 -10.6 10.2 c-6.2 0 -10.6 -4.08 -10.6 -10.2 l0 -14.48 l6 0 l0 14.48 c0 2.88 1.72 4.64 4.6 4.64 c2.96 0 4.6 -1.72 4.6 -4.64 l0 -14.48 z M82.64 26.52 l0 13.48 l-6 0 l0 -24.48 l6 0 l7.64 13.52 l7.64 -13.52 l6 0 l0 24.48 l-6 0 l0 -13.48 l-4.64 7.96 l-6 0 z M117.32 40 l0 -24.48 l11.6 0 c4.56 0 8.44 3.44 8.44 8.04 c0 4.64 -4 8.04 -8.44 8.04 l-5.6 0 l0 8.4 l-6 0 z M128.92 21.08 l-5.6 0 l0 4.96 l5.6 0 c1.4 0 2.44 -1.08 2.44 -2.48 s-1.04 -2.48 -2.44 -2.48 z M153.76 35.04 l-9 0 l-1.76 4.96 l-6.52 0 l9.8 -24.48 l6 0 l9.8 24.48 l-6.56 0 z M146.72 29.48 l5.08 0 l-2.52 -7.12 z M173.12 40 l-8.6 0 l0 -24.48 l8.6 0 c7.48 0 12.6 4.88 12.6 12.24 c0 7.56 -5.4 12.24 -12.6 12.24 z M170.52 21.08 l0 13.36 l2.6 0 c4.24 0 6.6 -2.68 6.6 -6.68 c0 -0.92 -0.12 -1.76 -0.36 -2.6 c-1.04 -2.92 -3.32 -4.08 -6.24 -4.08 l-2.6 0 z"></path></g></svg>