<svg id="logo_header" width="193" height="60" viewBox="0 0 193 60" class="css-1j8o68f"><defs id="SvgjsDefs1930"></defs><g id="SvgjsG1931" featurekey="symbolContainer" transform="matrix(1,0,0,1,0,0)" fill="#0d6efd">    <path xmlns="http://www.w3.org/2000/svg" fill-rule="nonzero" d="             M0,0             H73             V60             H0,0             z             M4,4             v52             h65             v-52             z     "></path></g><g id="SvgjsG1932" featurekey="symbolFeature-0" transform="matrix(0.42105263471603394,0,0,0.42105263471603394,16.093473635221784,8.871578818873356)" fill="#0d6efd"><g xmlns="http://www.w3.org/2000/svg"><circle fill="none" cx="49.651" cy="72.829" r="1.847"></circle><path fill="none" d="M6.159,65.021h86.985V15.996H6.159V65.021z M56.586,46.886l11.51-4.933v-0.062l-11.51-4.932V33.67   l14.891,6.825v2.854l-14.891,6.825V46.886z M51.652,28.924h3.133l-6.639,22.49h-3.132h-0.001L51.652,28.924z M27.825,43.256v-2.668   l14.89-6.918v3.289l-11.26,4.932v0.062l11.26,4.933v3.288L27.825,43.256L27.825,43.256z"></path><path d="M94.318,12.18h-43.88h-1.495H5.063c-1.563,0-2.91,1.188-2.91,2.752v54.092v0.188v5.013v0.313   c0,1.563,1.347,2.877,2.91,2.877h35.146c-0.041,0.896-0.321,4.753-2.155,6.623c-1.445,1.474-3.453,2.854-2.669,3.563   c0.19,0.436,1.091,0.688,3.14,0.688c4.521,0,9.416,0,11.208,0c0.453,0,0.707,0,0.707,0c1.791,0,6.688,0,11.207,0   c2.334,0,3.15-0.382,3.158-0.953h-0.08v-0.188h-0.082c-0.104-0.771-1.662-1.907-2.84-3.105c-1.834-1.87-2.113-5.727-2.154-6.623   h34.674c1.564,0,2.83-1.313,2.83-2.877v-0.314v-5.012v-0.189V14.934C97.15,13.368,95.883,12.18,94.318,12.18z M49.651,74.676   c-1.021,0-1.847-0.824-1.847-1.846s0.826-1.848,1.847-1.848c1.02,0,1.847,0.826,1.847,1.848   C51.499,73.852,50.671,74.676,49.651,74.676z M93.145,65.021H6.159V15.996h86.985V65.021z"></path><polygon points="42.715,46.886 31.455,41.953 31.455,41.891 42.715,36.959 42.715,33.67 27.825,40.588 27.825,43.256    27.825,43.257 42.715,50.174  "></polygon><polygon points="48.146,51.414 54.785,28.924 51.652,28.924 45.013,51.414 45.014,51.414  "></polygon><polygon points="71.477,40.495 56.586,33.67 56.586,36.959 68.096,41.891 68.096,41.953 56.586,46.886 56.586,50.174    71.477,43.349  "></polygon></g></g><g id="SvgjsG1933" featurekey="nameFeature-0" transform="matrix(2.110259532928467,0,0,2.110259532928467,88.74555460807038,-27.653893729354767)" fill="#0d6efd"><path d="M2.52 40 c-0.16 0 -0.32 -0.08 -0.4 -0.24 c-0.12 -0.12 -0.12 -0.32 -0.08 -0.48 l9.32 -23.96 c0.08 -0.2 0.28 -0.32 0.48 -0.32 l5.36 0 c0.2 0 0.4 0.12 0.48 0.32 l9.16 23.96 c0.04 0.16 0.04 0.32 -0.08 0.48 c-0.08 0.16 -0.24 0.24 -0.4 0.24 l-5.56 0 c-0.2 0 -0.4 -0.12 -0.48 -0.32 l-1.48 -3.68 l-9 0.04 l-1.48 3.64 c-0.08 0.2 -0.28 0.32 -0.48 0.32 l-5.36 0 z M11.48 31 l5.76 0 l-2.88 -8.48 z M35.4 40 c-0.2 0 -0.4 -0.12 -0.48 -0.32 l-8 -24 c-0.08 -0.16 -0.04 -0.32 0.04 -0.48 c0.12 -0.12 0.28 -0.2 0.44 -0.2 l5.6 0 c0.2 0 0.4 0.12 0.48 0.36 l4.76 15.64 l4.8 -15.64 c0.08 -0.24 0.28 -0.36 0.48 -0.36 l5.36 0 c0.16 0 0.32 0.08 0.44 0.2 c0.08 0.16 0.12 0.32 0.04 0.48 l-8.12 24 c-0.08 0.2 -0.24 0.32 -0.48 0.32 l-5.36 0 z"></path></g></svg>