<svg viewBox="0 0 349.99999999999994 228.06502428968432">
    <defs id="SvgjsDefs2643"></defs>
    <g id="SvgjsG2644" featurekey="symbolFeature-0"
        transform="matrix(0.5824503302574158,0,0,0.5824503302574158,105.15317295076777,0)" fill="#f5f3f3">
        <defs xmlns="http://www.w3.org/2000/svg"></defs>
        <g xmlns="http://www.w3.org/2000/svg">
            <path class="fil0"
                d="M115 43c2,0 3,-2 3,-5 0,-3 -3,-5 -6,-5 -3,0 -5,2 -5,5 0,3 1,5 3,5 -20,1 -37,10 -50,23 -10,-8 -32,-6 -33,-7 -4,-2 -7,-6 -10,-5 -2,1 -3,0 -4,0 -3,-2 -4,-12 -10,-6 1,3 0,5 -3,5 -2,9 8,4 10,5 1,0 2,1 2,3 1,3 6,4 10,6 11,6 8,16 20,22 1,1 2,2 4,2 -1,1 -1,3 -1,4 -3,-3 -8,-6 -13,-9 -7,-3 -12,-4 -15,-3 -17,15 2,37 25,34 -19,5 -44,-11 -30,-31 -19,19 12,39 30,33l0 1 120 0c3,-28 -8,-55 -32,-69 25,10 43,35 43,64 0,2 0,4 0,5l9 0c1,-3 1,-6 1,-9 15,-33 38,-69 57,-101 3,-28 -62,58 -52,74l-7 13c-2,-6 -4,-12 -7,-18 1,-5 3,-11 5,-16 7,-1 12,-4 15,-12 6,-15 9,-30 13,-45 -6,12 -11,25 -15,38 -1,3 -3,1 -3,-1 5,-13 8,-26 12,-39 -6,13 -11,24 -15,38 -1,2 -3,2 -2,-1 4,-13 8,-25 12,-39 -6,13 -12,25 -16,38 -1,1 -3,2 -2,-1 4,-13 9,-26 12,-39 -7,14 -14,28 -19,43 -3,8 0,13 4,19 -1,4 -3,8 -4,12 -13,-18 -33,-30 -56,-31zm-56 25c-1,1 -2,2 -2,3 -6,-5 -14,-8 -21,-8 8,-1 17,1 23,5zm-17 38l0 1c-1,-1 -2,-2 -5,-1 -2,0 -3,-2 -5,-1 -5,1 -8,0 -12,-1 8,-1 17,3 10,-10 3,2 3,4 4,5 5,0 4,3 6,6 0,0 1,1 2,1zm-5 -2c2,-1 -1,-5 -3,-4 -2,2 1,6 3,4z"
                style="fill: #f5f3f3;"></path>
            <path class="fil0"
                d="M72 130c2,3 5,6 6,9 1,4 -8,14 -6,19 2,11 -2,11 -7,18 5,2 11,6 16,8 15,-24 43,-38 64,-47 -1,-3 -3,-4 -7,-3 -11,4 -22,8 -33,13 -14,6 -19,3 -19,-5 0,-6 -3,-10 -6,-12l24 0c-2,4 -6,14 -9,19 6,-1 15,-6 22,-8 4,-9 7,-9 6,-11l9 0c-4,1 -11,8 -14,10 5,-2 10,-4 15,-6 3,-2 4,-4 3,-4l56 0c3,0 3,-6 0,-6l-159 0c-3,0 -3,6 0,6l39 0zm46 0l-9 0c0,3 -3,11 -5,14 0,1 1,0 3,-1 3,-4 7,-11 11,-13z"
                style="fill: #f5f3f3;"></path>
            <path class="fil0"
                d="M82 187l-21 -10 -17 17 31 0 7 -7zm-20 -7c1,0 3,1 3,2 0,1 -1,2 -2,2 -2,0 -3,-1 -3,-2 0,-1 1,-2 2,-2z"
                style="fill: #f5f3f3;"></path>
        </g>
    </g>
    <g id="SvgjsG2645" featurekey="nameFeature-0"
        transform="matrix(2.671170711517334,0,0,2.671170711517334,-5.401692169127956,87.24285681096381)" fill="#f5f3f3">
        <path
            d="M32.16 19.68 c0.2 0.64 0.08 1.4 -0.2 2 c-2.64 6.08 -7.64 15.4 -10.96 17.68 c-0.36 0.24 -0.76 0.52 -1.2 0.68 c-0.76 0.32 -1.64 0.36 -2.44 0.16 c-0.72 -0.08 -1.4 -0.36 -1.92 -0.88 c-0.24 -0.24 -1.08 -1.16 -0.92 -2.76 c0 -0.12 0.04 -0.28 0.04 -0.44 c-0.92 1.48 -2.08 2.92 -3.92 3.92 c-1.2 0.68 -3.4 0.24 -4.36 -0.72 c-0.24 -0.24 -1.08 -1.16 -0.92 -2.76 c0.08 -0.92 0.48 -1.76 0.84 -2.6 l0.76 -1.68 c0.2 -0.36 0.4 -0.72 0.64 -1.04 l0.24 -0.52 l0.4 -0.76 l2.6 -4.48 l0.24 -0.48 l0.12 -0.32 l0.36 -0.64 l0.48 -0.92 c0.12 -0.16 0.2 -0.4 0.32 -0.56 l0.4 -0.8 c0.24 -0.56 0.44 -1.12 0.56 -1.68 c0.04 -0.28 0.16 -0.88 -0.2 -1 c-0.16 -0.04 -0.36 0 -0.56 0 c-0.08 0.04 -0.16 0.04 -0.24 0.04 c-0.08 0.04 -0.16 0.04 -0.24 0.04 c-0.04 0.04 -0.12 0.08 -0.16 0.08 l-0.44 0.12 c-0.24 0.08 -0.52 0.16 -0.76 0.28 l-0.52 0.16 l-0.48 0.24 l-0.44 0.24 l-0.64 0.36 l-0.2 0.12 l-0.76 0.48 l-0.68 0.52 l-0.44 0.36 l-0.32 0.28 c-0.08 0.08 -0.16 0.2 -0.28 0.28 c-0.08 0.16 -0.24 0.24 -0.36 0.4 l-0.16 0.2 l-0.36 0.4 c-0.12 0.16 -0.2 0.32 -0.32 0.44 c-0.08 0.12 -0.16 0.24 -0.28 0.36 c0 0 0 0.04 -0.04 0.04 l-0.08 0.12 c-0.04 0.08 -0.08 0.16 -0.16 0.24 c0 0.04 0 0.04 -0.04 0.08 l-0.28 0.52 l-0.24 0.6 l-0.16 0.48 c-0.04 0.12 -0.04 0.24 -0.04 0.36 c-0.04 0.12 -0.08 0.28 -0.08 0.44 l0 0.24 c0 0.04 -0.04 0.12 0 0.2 c-0.08 0.12 0 0.28 0 0.4 l0 0.24 c0.04 0.12 0.08 0.28 0.08 0.4 c0.04 0.08 0.08 0.12 0.08 0.2 l0.12 0.32 c0 0.08 0.04 0.16 0.04 0.2 l0.12 0.36 l0.24 0.56 c0 0.08 0.04 0.16 0.08 0.24 c0 0.2 0.08 0.36 0.12 0.56 c0 0.24 0 0.4 -0.08 0.6 c-0.08 0.32 -0.32 0.52 -0.6 0.6 c-0.16 0.08 -0.32 0.04 -0.52 -0.04 c-0.24 -0.12 -0.44 -0.28 -0.6 -0.56 l-0.24 -0.48 l-0.16 -0.8 c0.04 -0.16 -0.04 -0.28 0 -0.4 c0 -0.12 -0.04 -0.24 0 -0.32 l0 -0.32 c0 -0.2 0.04 -0.4 0.04 -0.6 s0.04 -0.4 0.04 -0.6 c0.04 -0.08 0 -0.2 0.04 -0.28 l0.04 0 c-0.04 -0.16 0.04 -0.28 0.04 -0.4 c0 -0.08 0.04 -0.2 0.04 -0.28 c0.08 -0.2 0.12 -0.4 0.16 -0.6 l0.12 -0.4 l0.28 -0.68 c0.12 -0.28 0.28 -0.56 0.44 -0.8 c0.04 -0.08 0.04 -0.16 0.12 -0.2 c0 -0.04 0.04 -0.08 0.04 -0.12 c0.08 -0.16 0.16 -0.32 0.28 -0.48 c0.12 -0.12 0.16 -0.2 0.24 -0.32 l0.16 -0.16 c0.08 -0.16 0.24 -0.28 0.32 -0.44 c0.04 0 0.04 0 0.04 -0.04 c0.16 -0.12 0.28 -0.28 0.4 -0.44 c0.12 -0.08 0.2 -0.16 0.28 -0.28 l0.04 -0.04 l0.2 -0.16 c0.08 -0.12 0.2 -0.2 0.28 -0.28 c0.2 -0.16 0.32 -0.32 0.52 -0.44 c0.04 0 0.04 0 0.04 -0.04 c0.16 -0.16 0.36 -0.24 0.52 -0.4 l0.28 -0.2 c0.12 -0.08 0.24 -0.2 0.4 -0.28 l0.44 -0.28 l0.28 -0.2 l0.44 -0.24 l0.8 -0.4 c0.16 -0.12 0.32 -0.2 0.52 -0.24 c0.04 -0.04 0.04 -0.04 0.08 -0.04 c0.2 -0.12 0.4 -0.16 0.6 -0.24 l0.28 -0.12 c0.28 -0.08 0.52 -0.16 0.8 -0.2 l0 -0.04 c0.6 -0.16 1.24 -0.24 1.84 -0.16 c0.56 0.08 1.24 0.24 1.64 0.72 c0.36 0.48 0.4 1.16 0.28 1.76 l-0.2 0.52 c-0.04 0.2 -0.12 0.36 -0.24 0.56 l-0.04 0.04 l0.04 0.04 l-0.08 0.12 s0 0.04 -0.04 0.08 c-0.08 0.16 -0.2 0.32 -0.32 0.48 l-0.36 0.72 l-0.2 0.32 l-0.36 0.64 c0.44 -0.88 -3.08 5.84 -5.28 9.52 c-0.4 0.88 -0.8 1.8 -1 2.76 c-0.16 0.76 -0.08 1.64 0.48 2.24 c0.48 0.48 1.2 0.68 1.88 0.56 c2.52 -0.44 5.6 -5.64 10.16 -13.72 l0.32 -0.64 l0.28 -0.68 l0.2 -0.4 l0.08 -0.24 c0.04 -0.08 0.08 -0.16 0.08 -0.24 c0.08 -0.16 0.16 -0.32 0.2 -0.48 l0.2 -0.48 l0.16 -0.48 c0 -0.04 0.04 -0.08 0.04 -0.16 c0 -0.04 0.04 -0.08 0.08 -0.12 c0 -0.12 0.08 -0.2 0.08 -0.32 c0.04 -0.16 0.12 -0.32 0.12 -0.48 c0 -0.08 0.04 -0.12 0.04 -0.2 l0.12 -0.44 c0.04 -0.12 0.04 -0.28 0.04 -0.4 c0.08 -0.24 0.08 -0.52 0.08 -0.76 l0.08 -0.24 c0.04 -0.12 0.08 -0.12 0.16 -0.12 l0.16 0 c0.04 0 0.12 0.04 0.16 0.04 c0.16 0.12 0.28 0.28 0.4 0.4 c0.04 0.04 0.08 0.08 0.08 0.12 c0.12 0.24 0.2 0.48 0.28 0.72 c0.08 0.2 0.12 0.44 0.16 0.64 c0 0.16 0.04 0.32 0.04 0.48 l0 0.24 c0 0.16 -0.04 0.32 -0.04 0.48 c0 0.08 -0.04 0.16 -0.04 0.24 l-0.08 0.48 l-0.24 0.8 l-0.12 0.24 l-0.08 0.24 l-0.12 0.24 c-0.04 0.2 -0.16 0.4 -0.24 0.6 l-0.28 0.52 l-0.4 0.72 l-0.4 0.68 c-0.04 0.08 -1.16 2 -1.24 2.08 l-1.24 2.16 c-0.44 0.6 -0.76 1.24 -1.12 1.88 c-0.64 1.28 -1.28 2.56 -1.48 3.96 c-0.08 0.4 -0.08 0.76 0.04 1.12 l0.16 0.32 c0.12 0.24 0.24 0.44 0.4 0.64 c0.48 0.48 1.2 0.72 1.88 0.56 c3.44 -0.72 8.92 -11.24 10.48 -14.36 l0.28 -0.68 l0.2 -0.4 l0.08 -0.24 c0.04 -0.08 0.08 -0.16 0.08 -0.24 c0.08 -0.16 0.16 -0.32 0.2 -0.48 l0.2 -0.48 l0.16 -0.48 c0 -0.04 0.04 -0.08 0.04 -0.16 c0 -0.04 0.04 -0.08 0.08 -0.12 c0 -0.12 0.08 -0.2 0.08 -0.32 c0.04 -0.16 0.12 -0.32 0.12 -0.48 c0 -0.08 0.04 -0.12 0.04 -0.2 l0.12 -0.44 c0.04 -0.12 0.04 -0.28 0.04 -0.4 c0.08 -0.24 0.08 -0.52 0.08 -0.76 l0.08 -0.24 c0.04 -0.12 0.08 -0.12 0.16 -0.12 l0.16 0 c0.04 0 0.12 0.04 0.16 0.04 c0.2 0.24 0.36 0.44 0.44 0.72 z M41.4 32.88 l0 0.16 c0.04 0.08 -0.04 0.16 -0.12 0.24 l0 0.04 s0 0.04 -0.04 0.04 l-0.52 0.68 c-0.64 0.6 -1.56 1.6 -3.24 1.72 c-0.28 0 -0.52 -0.04 -0.76 -0.08 c0 0 -0.04 0.04 -0.04 0.08 c-0.08 0.16 -0.2 0.28 -0.28 0.4 l-0.52 0.72 l-0.44 0.52 c-0.08 0.12 -0.2 0.2 -0.28 0.36 c-0.08 0.08 -0.16 0.16 -0.24 0.2 s-0.12 0.12 -0.16 0.16 l-0.52 0.44 c-0.2 0.16 -0.4 0.32 -0.6 0.44 c-0.16 0.08 -0.32 0.2 -0.52 0.28 c-0.08 0 -0.12 0.08 -0.16 0.12 c-0.28 0.08 -0.52 0.2 -0.76 0.32 c-0.2 0.04 -0.4 0.08 -0.56 0.16 c-0.48 0 -0.96 0.08 -1.48 0 c-0.04 0 -0.08 -0.04 -0.2 -0.04 c-0.2 -0.12 -0.4 -0.2 -0.56 -0.32 c-0.44 -0.32 -0.84 -0.72 -1.08 -1.28 l-0.12 -0.36 c0 -0.04 0 -0.08 -0.04 -0.12 c-0.04 -0.12 -0.04 -0.24 -0.04 -0.36 c-0.04 -0.08 -0.08 -0.16 -0.04 -0.24 c0 -0.08 0 -0.12 -0.04 -0.2 l0 -0.16 c0.04 -0.04 0.04 -0.08 0.04 -0.12 c-0.04 -0.12 0 -0.2 0 -0.28 s0 -0.2 0.04 -0.28 c0.04 -0.16 0.04 -0.32 0.12 -0.48 c0 -0.2 0.12 -0.4 0.12 -0.6 l0.16 -0.4 c0.08 -0.2 0.16 -0.4 0.28 -0.6 l0.24 -0.52 c0 -0.04 0.08 -0.08 0.08 -0.16 c0.04 -0.12 0.16 -0.2 0.2 -0.32 l0.16 -0.28 c0.08 -0.16 0.4 -0.8 0.52 -0.92 c0.16 -0.24 0.32 -0.48 0.52 -0.72 c0.12 -0.16 0.28 -0.32 0.4 -0.52 c0.12 -0.12 0.24 -0.2 0.32 -0.36 c0.08 -0.08 0.16 -0.16 0.24 -0.2 l0.16 -0.16 l0.48 -0.44 l0.64 -0.44 c0.16 -0.08 0.32 -0.2 0.52 -0.28 c0.04 0 0.12 -0.08 0.16 -0.08 l0.76 -0.32 c0.2 -0.08 0.4 -0.12 0.56 -0.2 c0.08 0 0.16 0.04 0.2 -0.04 c0.04 0.04 0.08 0 0.12 0 l0.24 0 c0.2 0 0.84 0.04 1.04 0.12 c0.24 0.08 0.52 0.2 0.72 0.32 l0 0.04 c0.4 0.32 0.76 0.68 0.96 1.2 c0.08 0.12 0.12 0.24 0.12 0.36 c0 0.04 0.04 0.08 0.04 0.16 c0.04 0.08 0.08 0.2 0.08 0.32 c0 0.08 0.04 0.16 0.04 0.24 s0 0.16 0.04 0.2 c0 0.04 0 0.12 -0.04 0.16 l0 0.12 c0.04 0.12 0 0.2 0 0.28 c0 0.12 -0.04 0.2 -0.04 0.28 c-0.2 0.88 -0.48 1.92 -0.96 2.76 c-0.08 0.16 -0.16 0.36 -0.28 0.52 c0.16 0.08 0.36 0.16 0.56 0.16 l0.04 0 c0.24 0 0.28 0 0.48 -0.08 c0.8 -0.24 1.8 -1.36 2.44 -1.92 c0.2 -0.16 0.4 -0.44 0.6 -0.56 l0.08 0 c0.08 0 0.08 0.04 0.12 0.04 c0.04 0.04 0.04 0.04 0.04 0.08 z M36.28 33.12 c0.12 0.4 0.12 1.24 0.32 1.6 c0.12 -0.24 0.52 -0.88 0.64 -1.24 c0.16 -0.52 0.4 -1.6 0.4 -1.68 c0.04 -0.64 0 -1.32 -0.32 -1.88 c0 -0.04 0 -0.04 -0.04 -0.08 c-0.2 -0.32 -0.52 -0.52 -0.84 -0.72 c-0.2 -0.12 -0.84 -0.2 -1.08 -0.16 l-0.36 0.12 l-0.32 0.2 c-0.16 0.16 -0.32 0.28 -0.48 0.48 l-0.24 0.24 l-0.72 0.76 c-0.16 0.16 -0.24 0.32 -0.4 0.48 l-0.32 0.36 c-0.08 0.16 -0.2 0.28 -0.28 0.4 c-0.12 0.16 -0.48 0.84 -0.56 1 c-0.16 0.2 -0.28 0.4 -0.4 0.6 s-0.24 0.44 -0.4 0.64 c0 0.04 -0.04 0.08 -0.04 0.16 c-0.2 0.32 -0.36 0.68 -0.48 1.04 l-0.08 0.16 c-0.32 0.88 -0.48 1.84 -0.2 2.72 c0.08 0.32 0.24 0.6 0.44 0.84 c0.2 0.08 0.8 0.12 1 0.12 c0.52 0 1.56 -0.56 2 -1 c0.8 -0.64 1.56 -1.36 2.16 -2.16 c0.16 -0.2 0.32 -0.4 0.44 -0.6 c-0.28 -0.12 -0.64 -0.48 -0.88 -0.68 c-0.56 -0.44 -0.6 -1.2 -0.32 -1.8 c0.08 -0.16 0.2 -0.28 0.36 -0.36 s0.32 -0.12 0.44 -0.08 c0.28 0.04 0.48 0.28 0.56 0.52 z M51.440000000000005 32.84 l0.04 0.04 c0 0.08 0 0.16 -0.04 0.24 c-0.04 0.16 -0.12 0.28 -0.2 0.4 c-0.2 0.24 -0.36 0.48 -0.52 0.72 l-0.56 0.76 l-0.52 0.76 l-0.48 0.64 l-0.12 0.2 l-0.6 0.68 l-0.68 0.72 c-0.12 0.16 -0.28 0.32 -0.44 0.44 c-0.28 0.28 -0.52 0.52 -0.84 0.76 l-0.16 0.08 l-0.44 0.24 c-0.2 0.12 -0.4 0.2 -0.6 0.24 c-0.12 0 -0.24 0.04 -0.36 0.04 s-0.24 -0.04 -0.36 -0.08 s-0.24 -0.08 -0.36 -0.08 l-0.2 -0.12 l-0.28 -0.2 c-0.28 -0.2 -0.44 -0.48 -0.56 -0.76 c-0.48 -1.48 0.92 -4.72 2.36 -7.16 c-0.88 0.28 -1.96 0.28 -2.8 -0.04 c-0.12 0.16 -0.24 0.36 -0.4 0.52 l-0.36 0.52 l-0.44 0.6 l-0.56 0.76 c-0.04 0.08 -0.16 0.16 -0.2 0.28 c-0.04 0.04 -0.08 0.04 -0.08 0 c-0.04 -0.04 -0.08 -0.04 -0.12 -0.04 s-0.08 0 -0.12 -0.04 l-0.04 -0.04 c0 -0.08 0 -0.16 0.04 -0.24 c0.04 -0.16 0.12 -0.28 0.2 -0.4 c0.2 -0.24 0.36 -0.48 0.52 -0.72 l0.56 -0.76 l0.48 -0.72 c-0.56 -0.4 -0.96 -1 -0.96 -1.88 c0 -0.72 0.32 -1.48 0.88 -1.96 l0.04 0 l0.08 -0.08 c0.08 -0.08 0.24 -0.12 0.36 -0.12 c0.4 -0.12 1.12 -0.08 1.16 0.6 c0.04 0.16 0 0.28 0 0.4 c-0.24 1.04 -0.52 3.04 0.76 3.04 c1.2 0 2.2 -1.72 3.12 -2.2 c0.32 -0.08 0.6 -0.08 0.92 -0.04 c0.2 0.04 0.48 0.04 0.64 0.16 c0.08 0.08 0.12 0.16 0.16 0.24 l-0.08 0.08 l-0.24 0.44 l-0.2 0.36 l-1.2 1.84 c-0.12 0.28 -0.28 0.56 -0.44 0.8 c-0.2 0.32 -0.36 0.68 -0.52 1 l-0.48 0.92 c-0.12 0.2 -0.2 0.44 -0.32 0.68 l-0.2 0.32 l-0.24 0.72 c-0.08 0.16 -0.12 0.32 -0.16 0.48 c0 0.08 -0.04 0.12 -0.04 0.2 c0 0.16 -0.04 0.32 -0.04 0.48 s0.08 0.32 0.08 0.44 l0.16 0.24 c0.04 0.04 0.08 0.12 0.16 0.16 s0.16 0.08 0.24 0.08 c0.12 0 0.28 0 0.4 -0.04 c0.08 0 0.16 -0.04 0.24 -0.08 c0.2 -0.08 0.36 -0.24 0.52 -0.36 l0.44 -0.44 c0.24 -0.32 0.52 -0.6 0.76 -0.96 l0.36 -0.44 c0.12 -0.16 0.24 -0.24 0.32 -0.4 l0.16 -0.2 c0.2 -0.2 0.32 -0.44 0.52 -0.64 l0.36 -0.52 l0.44 -0.6 l0.56 -0.76 c0.04 -0.08 0.16 -0.16 0.2 -0.28 c0.04 -0.04 0.08 -0.04 0.08 0 c0.04 0.04 0.08 0.04 0.12 0.04 s0.08 0 0.12 0.04 z M49.36 38.24 c-0.52 -2.92 6.8 -15 8.24 -17.8 l0.12 -0.2 c0.08 -0.16 0.24 -0.32 0.32 -0.52 l0.36 -0.56 c0.08 -0.2 0.24 -0.4 0.36 -0.56 c0.08 -0.08 0.16 -0.2 0.28 -0.24 c0.08 -0.08 0.24 -0.12 0.36 -0.12 c0.12 -0.04 0.28 0 0.4 -0.04 c0.08 -0.04 0.16 -0.04 0.24 0 c0.16 0 0.36 0.08 0.52 0.12 c0.2 0.04 0.4 0.12 0.52 0.36 c0 0.08 0 0.12 -0.04 0.16 l-0.44 0.88 l-0.32 0.48 l-0.08 0.16 l-0.24 0.44 l-0.2 0.36 l-0.4 0.68 c-0.12 0.28 -5.72 10.68 -5.88 10.92 c-0.2 0.32 -0.36 0.68 -0.52 1 l-0.48 0.92 c-0.12 0.2 -0.2 0.44 -0.32 0.68 l-0.2 0.32 l-0.24 0.72 c-0.08 0.16 -0.12 0.32 -0.16 0.48 c0 0.08 -0.04 0.12 -0.04 0.2 c0 0.16 -0.04 0.32 -0.04 0.48 s0.08 0.32 0.08 0.44 l0.16 0.24 c0.04 0.04 0.08 0.12 0.16 0.16 s0.16 0.08 0.24 0.08 c0.12 0 0.28 0 0.4 -0.04 c0.08 0 0.16 -0.04 0.24 -0.08 c0.2 -0.08 0.36 -0.24 0.52 -0.36 l0.44 -0.44 c0.24 -0.32 0.52 -0.6 0.76 -0.96 l0.36 -0.44 c0.12 -0.16 0.24 -0.24 0.32 -0.4 l0.16 -0.2 c0.2 -0.2 0.32 -0.44 0.52 -0.64 l0.36 -0.52 l0.44 -0.6 l0.56 -0.76 c0.04 -0.08 0.16 -0.16 0.2 -0.28 c0.04 -0.04 0.08 -0.04 0.08 0 c0.04 0.04 0.08 0.04 0.12 0.04 s0.08 0 0.12 0.04 l0.04 0.04 c0 0.08 0 0.16 -0.04 0.24 c-0.04 0.16 -0.12 0.28 -0.2 0.4 c-0.2 0.24 -0.36 0.48 -0.52 0.72 l-0.56 0.76 l-0.52 0.76 l-0.48 0.64 l-0.12 0.2 l-0.6 0.68 l-0.68 0.72 c-0.12 0.16 -0.28 0.32 -0.44 0.44 c-0.28 0.28 -0.52 0.52 -0.84 0.76 l-0.16 0.08 l-0.44 0.24 c-0.2 0.12 -0.4 0.2 -0.6 0.24 c-0.12 0 -0.24 0.04 -0.36 0.04 s-0.24 -0.04 -0.36 -0.08 s-0.24 -0.08 -0.36 -0.08 l-0.2 -0.12 l-0.28 -0.2 c-0.28 -0.2 -0.6 -0.8 -0.64 -1.08 z M74.56 18.56 c0.04 0.08 0.12 0.16 0.08 0.28 c0 0.08 -0.04 0.2 -0.12 0.28 l-0.08 0.16 c-0.08 0.16 -0.16 0.36 -0.28 0.48 c-0.12 0.16 -0.2 0.32 -0.28 0.48 c-0.04 0.16 -0.12 0.32 -0.2 0.48 s-0.2 0.28 -0.24 0.4 c-0.08 0.16 -0.2 0.28 -0.28 0.4 l-0.28 0.52 l-0.4 0.68 c-0.08 0.12 -0.16 0.24 -0.2 0.36 c-0.08 0.16 -0.16 0.32 -0.28 0.48 l-0.4 0.68 c-0.16 0.32 -0.32 0.64 -0.52 0.92 l-0.24 0.4 l-0.56 1.04 c-0.16 0.28 -0.32 0.56 -0.44 0.88 l-0.24 0.4 c-0.16 0.32 -0.36 0.64 -0.6 0.96 l-0.16 0.28 c-0.04 0.12 -0.32 0.6 -0.4 0.72 l-0.28 0.48 l-0.08 0.16 l-0.24 0.44 l-0.24 0.36 l-0.36 0.68 c-0.16 0.28 -0.28 0.56 -0.44 0.8 l-0.56 1 c-0.16 0.28 -0.28 0.6 -0.44 0.92 c-0.16 0.2 -0.24 0.44 -0.36 0.68 l-0.16 0.32 c-0.12 0.24 -0.2 0.48 -0.28 0.72 l-0.12 0.48 c-0.04 0.08 -0.04 0.16 -0.04 0.2 c0 0.16 -0.04 0.32 -0.04 0.52 c0 0.12 0.04 0.28 0.08 0.4 c0 0.08 0.08 0.16 0.16 0.24 l0.12 0.16 c0.08 0.04 0.16 0.08 0.24 0.08 c0.16 0 0.28 0 0.44 -0.04 c0.08 0 0.12 -0.04 0.2 -0.08 c0.2 -0.08 0.36 -0.24 0.52 -0.36 c0.16 -0.16 0.32 -0.28 0.44 -0.44 c0.28 -0.32 0.56 -0.6 0.8 -0.96 c0.08 -0.16 0.24 -0.28 0.36 -0.44 c0.08 -0.16 0.2 -0.24 0.28 -0.4 c0.04 -0.08 0.12 -0.16 0.2 -0.2 l0.48 -0.64 c0.16 -0.16 0.28 -0.36 0.4 -0.52 l0.44 -0.6 c0.16 -0.24 0.32 -0.52 0.52 -0.76 l0.24 -0.28 s0.04 -0.04 0.08 0 s0.04 0.04 0.08 0.04 c0.08 0 0.08 0 0.12 0.04 c0.04 0 0.04 0.04 0.04 0.04 c0 0.08 0.04 0.16 0 0.24 c-0.04 0.16 -0.16 0.28 -0.24 0.4 c-0.2 0.24 -0.36 0.48 -0.52 0.72 l-0.52 0.76 c-0.2 0.24 -0.36 0.48 -0.52 0.76 l-0.48 0.64 c-0.08 0.04 -0.12 0.12 -0.16 0.2 c-0.2 0.24 -0.36 0.44 -0.6 0.68 l-0.68 0.72 c-0.12 0.16 -0.24 0.32 -0.4 0.44 l-0.84 0.76 l-0.16 0.08 l-0.44 0.24 c-0.2 0.12 -0.4 0.2 -0.64 0.24 c-0.12 0 -0.2 0.04 -0.32 0.04 c-0.16 0 -0.28 -0.04 -0.36 -0.08 c-0.12 -0.04 -0.24 -0.08 -0.36 -0.08 l-0.24 -0.12 l-0.28 -0.2 c-0.24 -0.2 -0.4 -0.48 -0.56 -0.76 c-0.12 -0.28 -0.2 -0.56 -0.16 -0.88 c0.04 -0.12 0.04 -0.28 0.04 -0.4 l0 -0.12 c0 -0.08 0.04 -0.08 0 -0.16 c0 0.04 -0.04 0.08 -0.08 0.08 l-0.48 0.56 l-0.88 0.92 l-0.36 0.28 c-0.08 0.08 -0.16 0.16 -0.28 0.2 c-0.24 0.16 -0.48 0.32 -0.72 0.44 c-0.32 0.16 -0.64 0.32 -0.96 0.44 c-0.12 0.04 -0.24 0.04 -0.36 0.04 l-0.32 0 c-0.24 0 -0.44 -0.04 -0.64 -0.12 c-0.08 0 -0.12 0 -0.16 -0.04 c-0.2 -0.04 -0.36 -0.16 -0.52 -0.28 c-0.24 -0.12 -0.4 -0.32 -0.52 -0.56 c-0.08 -0.04 -0.12 -0.16 -0.16 -0.24 c-0.08 -0.2 -0.16 -0.4 -0.2 -0.6 l-0.08 -0.44 l0 -0.36 c0 -0.08 0.04 -0.16 -0.04 -0.24 c0.08 -0.12 0 -0.24 0.08 -0.36 l0 -0.08 c0 -0.2 0.04 -0.4 0.08 -0.6 l0.12 -0.6 l0.12 -0.32 c0.04 -0.24 0.16 -0.48 0.24 -0.72 l0.2 -0.4 c0.08 -0.16 0.16 -0.32 0.2 -0.48 c0.12 -0.12 0.16 -0.28 0.28 -0.4 l0 -0.04 c0.04 -0.12 0.12 -0.2 0.2 -0.32 c0.04 -0.12 0.16 -0.24 0.2 -0.36 l0.56 -0.72 l0.44 -0.52 l0.28 -0.36 c0.12 -0.12 0.24 -0.2 0.36 -0.28 c0.16 -0.2 0.36 -0.36 0.56 -0.52 l0.56 -0.4 c0.16 -0.08 0.32 -0.2 0.52 -0.28 l0.28 -0.12 c0.2 -0.12 0.4 -0.2 0.64 -0.28 c0.16 -0.08 0.36 -0.12 0.56 -0.2 l0.2 0 c0.12 -0.04 0.24 -0.04 0.36 -0.04 c0.16 -0.04 0.36 -0.04 0.56 -0.04 l0.16 0 c0.28 -0.04 0.56 0.08 0.8 0.16 c0.2 0.08 0.4 0.2 0.56 0.4 c0.12 0.12 0.2 0.28 0.24 0.44 s0.08 0.32 0.08 0.48 c0 0.12 0.04 0.24 0.04 0.36 c0 0.04 0.04 0.08 0.04 0.12 s0.04 0.04 0.04 0.04 l0.08 -0.08 c0 -0.08 0.04 -0.12 0.08 -0.2 c0.12 -0.16 0.24 -0.32 0.32 -0.52 l0.36 -0.56 c0.12 -0.2 0.24 -0.4 0.4 -0.56 c0.04 -0.12 0.12 -0.24 0.2 -0.36 l0.6 -1.16 l0.32 -0.52 l0.24 -0.36 l0.16 -0.32 l0.48 -0.76 l0.28 -0.52 c0.16 -0.28 0.28 -0.56 0.36 -0.84 l0.08 -0.16 c0.16 -0.2 0.28 -0.44 0.4 -0.68 l0.28 -0.4 l0.2 -0.32 c0.12 -0.32 0.32 -0.6 0.52 -0.88 l0.04 -0.04 l0.24 -0.44 l0.12 -0.28 l0.36 -0.72 l0.28 -0.44 c0.04 -0.08 0.08 -0.16 0.16 -0.24 l0.12 -0.16 l0.24 -0.52 c0.08 -0.16 0.2 -0.2 0.32 -0.24 c0.16 -0.08 0.28 -0.12 0.44 -0.16 l0.72 0 c0.12 0 0.28 0.04 0.4 0.08 c0.16 0.04 0.28 0.16 0.36 0.28 z M64.76 31.8 c0 -0.2 0.04 -0.36 0.04 -0.52 l0 -0.72 c0 -0.16 -0.04 -0.28 -0.08 -0.44 c-0.04 -0.2 -0.16 -0.36 -0.28 -0.52 c-0.04 -0.08 -0.12 -0.16 -0.24 -0.2 c-0.04 0 -0.08 0 -0.16 -0.04 c-0.08 0 -0.16 -0.04 -0.24 -0.04 c-0.16 -0.04 -0.32 0 -0.48 0.04 c-0.24 0.04 -0.44 0.12 -0.64 0.24 c-0.36 0.16 -0.64 0.44 -0.92 0.68 c-0.08 0.12 -0.16 0.24 -0.28 0.32 l-0.68 0.76 c-0.04 0 -0.04 0 -0.04 0.04 l-0.36 0.44 l-0.48 0.56 c-0.2 0.24 -0.4 0.56 -0.56 0.84 l-0.32 0.48 l-0.36 0.64 c-0.16 0.28 -0.28 0.56 -0.4 0.84 c-0.08 0.16 -0.16 0.32 -0.2 0.52 c-0.04 0.12 -0.08 0.24 -0.08 0.4 c-0.04 0.12 -0.08 0.24 -0.08 0.4 c0 0.12 -0.04 0.24 -0.04 0.36 l0 0.76 c0.04 0.2 0.08 0.4 0.16 0.6 c0.08 0.24 0.24 0.44 0.48 0.6 c0.12 0.08 0.28 0.16 0.44 0.2 c0.2 0 0.4 0 0.56 -0.08 l0.08 -0.04 c0.08 0 0.12 0 0.16 -0.04 c0.32 -0.2 0.6 -0.32 0.88 -0.56 c0.24 -0.2 0.48 -0.36 0.72 -0.6 c0.12 -0.12 0.24 -0.24 0.32 -0.4 c0.2 -0.2 0.32 -0.4 0.48 -0.64 c0.12 -0.12 0.2 -0.28 0.28 -0.4 l0.4 -0.56 c0.16 -0.24 0.28 -0.52 0.4 -0.76 c0.16 -0.24 0.28 -0.52 0.4 -0.8 c0.12 -0.2 0.24 -0.44 0.32 -0.68 l0.08 -0.12 l0.2 -0.36 c0.12 -0.24 0.28 -0.48 0.4 -0.76 c0.04 -0.16 0.04 -0.32 0.12 -0.44 z M106.44 17.88 c0 0.08 0 0.2 -0.04 0.28 l-0.12 0.36 c-0.12 0.2 -0.24 0.36 -0.4 0.52 l-0.2 0.2 l-0.24 0.16 c-0.12 0.08 -0.24 0.16 -0.4 0.2 c-0.04 0 -0.12 0.04 -0.16 0.04 c-0.16 0.04 -0.28 0.08 -0.44 0.08 l-0.04 0 c-0.12 0.04 -0.28 0 -0.44 0.04 c-0.12 0 -0.24 -0.04 -0.36 -0.04 c-0.08 0.04 -0.12 0 -0.2 0 c-0.04 -0.04 -0.12 0 -0.16 0 l-0.52 -0.08 l-0.76 -0.08 l-0.68 -0.12 c-0.24 0 -0.44 -0.04 -0.64 -0.08 l-0.16 0 l-0.44 -0.08 l-0.16 0 c-0.12 -0.04 -0.24 -0.04 -0.36 -0.04 c-0.24 0 -0.44 -0.08 -0.68 -0.08 l-0.16 0 c-0.2 0 -0.36 -0.04 -0.56 -0.04 c-0.12 -0.04 -0.28 -0.04 -0.4 -0.04 c-0.08 0 -0.12 -0.04 -0.2 -0.04 c-0.12 0 -0.24 -0.04 -0.36 -0.04 l-0.12 0 c-0.12 0 -0.24 -0.04 -0.32 -0.04 c-0.16 0 -0.32 -0.04 -0.48 -0.04 c-0.12 -0.04 -0.28 -0.04 -0.4 -0.04 s-0.24 -0.04 -0.4 -0.04 c-0.04 0 -0.12 0 -0.16 -0.04 l-0.48 0 c-0.16 -0.04 -0.28 -0.04 -0.44 -0.04 l-0.12 0 c-0.12 -0.04 -0.2 -0.04 -0.28 -0.04 l-0.36 0 c-0.12 0 -0.24 -0.04 -0.36 -0.04 s-0.24 0.04 -0.36 0 l-0.32 0 l0 0.4 c-0.04 0.08 -0.04 0.16 -0.04 0.24 l-0.12 0.56 c-0.08 0.2 -0.12 0.4 -0.2 0.56 c-0.04 0.24 -0.2 0.44 -0.28 0.64 l-0.28 0.56 l-0.04 0.04 l-0.32 0.52 l-0.4 0.72 l-0.16 0.32 c-0.12 0.2 -0.24 0.44 -0.4 0.64 l-0.32 0.64 c-0.08 0.2 -0.16 0.4 -0.28 0.6 c-0.08 0.2 -0.36 0.64 -0.44 0.84 c-0.08 0.12 -0.04 0.12 -0.24 0.44 c1.08 0 0.32 -0.08 1.4 -0.08 c0.6 0 1.2 -0.04 1.8 -0.12 s1.12 -0.16 1.68 -0.08 c0.48 0 1.04 0.36 0.8 0.92 c-0.16 0.48 -0.96 0.4 -1.36 0.36 l-1.76 -0.28 l-1.84 -0.08 c-1 0 -0.76 0.08 -1.08 0.08 c-1.28 2.04 -5.8 9.76 -6.12 11.04 l-0.44 1.76 c-0.04 0.2 -0.32 0.48 -0.52 0.52 c-0.24 0.12 -0.52 -0.16 -0.64 -0.32 c-0.16 -0.2 -0.32 -0.48 -0.4 -0.76 c-0.04 -0.12 -0.08 -0.28 -0.08 -0.4 c0 -0.04 -0.04 -0.12 -0.04 -0.16 l0 -1 c0.04 -0.24 0.12 -0.52 0.24 -0.76 c0.04 -0.2 0.12 -0.4 0.2 -0.56 l0.16 -0.44 l0.16 -0.32 l0.24 -0.36 c0.16 -0.16 0.28 -0.32 0.4 -0.52 l1.28 -2.2 l0.36 -0.56 l0.48 -0.8 c0.16 -0.32 0.36 -0.64 0.56 -0.96 c0.12 -0.16 0.04 -0.12 0.16 -0.28 c0.16 -0.24 0.24 -0.48 0.36 -0.72 c0.16 -0.24 0.28 -0.48 0.4 -0.72 l0.44 -0.76 c0.16 -0.28 0.32 -0.56 0.44 -0.84 l-0.08 0 c-0.12 -0.04 -0.28 -0.04 -0.4 -0.04 l-0.04 0 c-0.16 0 -0.32 0 -0.44 0.04 c-0.24 0 -0.48 0.04 -0.72 0.08 c-0.16 0 -0.28 0.04 -0.44 0.12 l-0.28 0.2 l-0.32 0.28 l-0.32 0.44 c-0.08 0.16 -0.2 0.24 -0.28 0.4 l-0.2 0.16 l-0.12 0.12 c-0.16 0.12 -0.36 0.2 -0.52 0.28 s-0.32 0.04 -0.48 -0.04 c-0.08 -0.04 -0.12 -0.12 -0.16 -0.2 l0 -0.24 l0.08 -0.24 l0.08 -0.16 l0.16 -0.24 c0.08 -0.04 0.12 -0.12 0.16 -0.16 c0.12 -0.16 0.28 -0.28 0.44 -0.4 l0.2 -0.12 l0.64 -0.36 c0.16 -0.08 0.28 -0.16 0.44 -0.2 l0.28 -0.12 c0.04 0 0.12 -0.04 0.16 -0.04 c0.16 0 0.28 -0.08 0.44 -0.08 c0.08 0 0.12 0 0.2 -0.04 c0.2 0 0.36 -0.04 0.56 -0.04 l0.24 0 c0.2 0 0.36 -0.04 0.56 -0.04 c0.16 0.04 0.32 0.04 0.48 0.04 l0.04 0 l0.12 -0.2 l0.32 -0.56 l0.4 -0.72 c0.12 -0.16 0.2 -0.32 0.24 -0.52 c0.04 -0.08 0.08 -0.2 0.16 -0.28 l0.36 -0.64 l0.48 -0.92 l0.28 -0.56 c0.16 -0.28 0.28 -0.56 0.44 -0.8 c0.12 -0.24 0.24 -0.52 0.4 -0.76 l0.32 -0.84 c0.04 -0.12 0.08 -0.28 0.08 -0.4 c0.04 -0.12 0.08 -0.28 0.08 -0.4 c0 -0.04 0.04 -0.08 0.04 -0.16 c0 -0.04 0 -0.08 0.04 -0.12 l0 -0.08 c0 -0.04 -0.04 -0.04 -0.04 -0.04 l-0.32 0 c-0.08 0.04 -0.16 0.04 -0.24 0.04 c-0.16 0 -0.32 0.04 -0.48 0.08 l-0.56 0.08 l-0.2 0.08 l-0.4 0.12 l-0.76 0.24 l-0.52 0.2 l-0.48 0.24 l-0.44 0.24 l-0.68 0.36 l-0.2 0.12 l-0.72 0.48 c-0.24 0.16 -0.48 0.32 -0.68 0.52 l-0.44 0.36 l-0.32 0.28 c-0.08 0.08 -0.16 0.2 -0.28 0.28 c-0.08 0.12 -0.24 0.24 -0.36 0.36 c-0.04 0.08 -0.12 0.16 -0.2 0.24 l-0.32 0.4 c-0.12 0.16 -0.24 0.28 -0.32 0.44 c-0.12 0.12 -0.2 0.24 -0.28 0.36 l-0.04 0.04 l-0.08 0.12 l-0.16 0.24 c0 0.04 -0.04 0.04 -0.04 0.04 c-0.08 0.2 -0.2 0.36 -0.28 0.52 c-0.12 0.2 -0.2 0.4 -0.24 0.64 c-0.08 0.16 -0.12 0.32 -0.16 0.48 l-0.08 0.32 c0 0.16 -0.04 0.32 -0.04 0.48 c-0.04 0.08 -0.04 0.16 -0.04 0.2 c0 0.08 -0.04 0.16 0 0.2 c-0.04 0.16 0.04 0.28 0.04 0.44 c-0.04 0.08 0 0.16 0 0.2 l0.08 0.44 c0 0.08 0.04 0.12 0.08 0.2 c0 0.12 0.04 0.2 0.08 0.32 l0.08 0.2 l0.12 0.36 c0.08 0.2 0.16 0.36 0.2 0.56 c0.04 0.08 0.08 0.16 0.08 0.24 c0.04 0.2 0.12 0.36 0.12 0.56 c0.04 0.2 0.04 0.4 -0.04 0.6 c-0.12 0.28 -0.32 0.52 -0.6 0.6 c-0.16 0.04 -0.36 0.04 -0.52 -0.04 c-0.28 -0.12 -0.48 -0.28 -0.6 -0.56 c-0.08 -0.16 -0.2 -0.32 -0.24 -0.48 c-0.04 -0.12 -0.08 -0.28 -0.08 -0.4 l-0.08 -0.4 c0 -0.16 -0.04 -0.28 -0.04 -0.4 l0 -0.32 c0 -0.12 0 -0.24 0.04 -0.32 c0 -0.2 0 -0.4 0.04 -0.6 c0 -0.2 0 -0.4 0.04 -0.6 c0 -0.08 0 -0.2 0.04 -0.28 c0 -0.16 0.04 -0.28 0.08 -0.4 c0 -0.12 0.04 -0.2 0.04 -0.28 l0.16 -0.6 l0.12 -0.4 c0.08 -0.24 0.16 -0.48 0.28 -0.72 s0.24 -0.52 0.4 -0.76 l0.12 -0.2 l0.08 -0.12 c0.04 -0.2 0.16 -0.36 0.28 -0.48 l0.24 -0.32 l0.12 -0.16 c0.04 0 0.04 0 0.04 -0.04 c0.08 -0.12 0.24 -0.24 0.32 -0.4 l0.04 -0.04 l0.4 -0.44 c0.08 -0.08 0.2 -0.16 0.28 -0.28 l0.04 -0.04 c0.08 -0.04 0.12 -0.12 0.2 -0.2 l0.28 -0.24 c0.16 -0.16 0.32 -0.32 0.52 -0.44 c0 -0.04 0 -0.04 0.04 -0.04 c0.12 -0.16 0.32 -0.28 0.48 -0.4 l0.28 -0.2 l0.44 -0.28 c0.12 -0.12 0.28 -0.2 0.44 -0.32 c0.08 -0.04 0.16 -0.12 0.28 -0.16 l0.44 -0.24 l0.76 -0.44 l0.56 -0.24 l0.04 0 c0.2 -0.12 0.44 -0.2 0.64 -0.24 l0.28 -0.12 l0.76 -0.24 c0.2 0 0.4 -0.08 0.6 -0.08 l0.48 -0.08 c0.2 -0.04 0.36 -0.04 0.52 -0.12 c0.08 0 0.12 -0.04 0.2 -0.04 l0.32 0 c0.04 0 0.04 -0.04 0.04 -0.04 l0 -0.12 c0 -0.16 0.08 -0.24 0.2 -0.32 s0.28 -0.12 0.44 -0.08 c0.16 0 0.32 0.04 0.48 0.16 l0.32 0.24 l0.12 0.16 c0.04 0.04 0.04 0.08 0.08 0.08 c0 -0.04 0.04 -0.04 0.04 -0.04 l0.08 0.16 c0.08 -0.04 0.16 -0.04 0.2 -0.04 c0.08 0 0.16 0 0.24 0.04 c0.08 0 0.12 -0.04 0.2 0 l0.52 0 c0.12 0.04 0.24 0 0.32 0.04 l0.44 0 c0 -0.04 0 0 0.04 0 l0.48 0 c0.2 0 0.36 0.04 0.56 0.04 l0.64 0.12 c0.12 0 0.24 0 0.4 0.04 l0.48 0.08 c0.16 0 0.28 0.04 0.4 0.04 c0.2 0.04 0.36 0.08 0.56 0.08 c0.12 0.04 0.28 0.08 0.4 0.08 c0.2 0 0.36 0.04 0.56 0.04 c0.12 0.04 0.24 0.04 0.4 0.04 c0.12 0.04 0.24 0.04 0.4 0.04 c0.08 0 0.12 0.04 0.2 0.04 l0.16 0 c0.16 0 0.36 0.04 0.56 0.04 c0.16 0 0.32 0.04 0.48 0.04 c0.12 0.04 0.2 0.04 0.32 0.04 l1.12 0 c0.28 0 0.52 -0.04 0.76 -0.08 c0.12 0 0.2 -0.04 0.32 -0.08 c0.04 -0.04 0.12 -0.04 0.2 -0.04 c0.12 -0.04 0.28 -0.08 0.4 -0.16 c0.16 -0.08 0.32 -0.12 0.44 -0.2 c0.08 -0.04 0.12 -0.08 0.16 -0.08 c0.08 -0.08 0.16 -0.12 0.24 -0.16 l0.4 -0.32 l0.24 -0.32 c0.08 -0.08 0.16 -0.12 0.24 -0.12 c0.04 -0.04 0.12 -0.04 0.16 0 c0.08 0 0.12 0 0.16 0.08 c0.04 0.04 0.08 0.12 0.16 0.12 c0.08 0.04 0.12 0.12 0.16 0.2 s0.04 0.2 0.04 0.32 z M104.68 32.88 l0 0.16 c0.04 0.08 -0.04 0.16 -0.12 0.24 l0 0.04 s0 0.04 -0.04 0.04 l-0.52 0.68 c-0.64 0.6 -1.56 1.6 -3.24 1.72 c-0.28 0 -0.52 -0.04 -0.76 -0.08 c0 0 -0.04 0.04 -0.04 0.08 c-0.08 0.16 -0.2 0.28 -0.28 0.4 l-0.52 0.72 l-0.44 0.52 c-0.08 0.12 -0.2 0.2 -0.28 0.36 c-0.08 0.08 -0.16 0.16 -0.24 0.2 s-0.12 0.12 -0.16 0.16 l-0.52 0.44 c-0.2 0.16 -0.4 0.32 -0.6 0.44 c-0.16 0.08 -0.32 0.2 -0.52 0.28 c-0.08 0 -0.12 0.08 -0.16 0.12 c-0.28 0.08 -0.52 0.2 -0.76 0.32 c-0.2 0.04 -0.4 0.08 -0.56 0.16 c-0.48 0 -0.96 0.08 -1.48 0 c-0.04 0 -0.08 -0.04 -0.2 -0.04 c-0.2 -0.12 -0.4 -0.2 -0.56 -0.32 c-0.44 -0.32 -0.84 -0.72 -1.08 -1.28 l-0.12 -0.36 c0 -0.04 0 -0.08 -0.04 -0.12 c-0.04 -0.12 -0.04 -0.24 -0.04 -0.36 c-0.04 -0.08 -0.08 -0.16 -0.04 -0.24 c0 -0.08 0 -0.12 -0.04 -0.2 l0 -0.16 c0.04 -0.04 0.04 -0.08 0.04 -0.12 c-0.04 -0.12 0 -0.2 0 -0.28 s0 -0.2 0.04 -0.28 c0.04 -0.16 0.04 -0.32 0.12 -0.48 c0 -0.2 0.12 -0.4 0.12 -0.6 l0.16 -0.4 c0.08 -0.2 0.16 -0.4 0.28 -0.6 l0.24 -0.52 c0 -0.04 0.08 -0.08 0.08 -0.16 c0.04 -0.12 0.16 -0.2 0.2 -0.32 l0.16 -0.28 c0.08 -0.16 0.4 -0.8 0.52 -0.92 c0.16 -0.24 0.32 -0.48 0.52 -0.72 c0.12 -0.16 0.28 -0.32 0.4 -0.52 c0.12 -0.12 0.24 -0.2 0.32 -0.36 c0.08 -0.08 0.16 -0.16 0.24 -0.2 l0.16 -0.16 l0.48 -0.44 l0.64 -0.44 c0.16 -0.08 0.32 -0.2 0.52 -0.28 c0.04 0 0.12 -0.08 0.16 -0.08 l0.76 -0.32 c0.2 -0.08 0.4 -0.12 0.56 -0.2 c0.08 0 0.16 0.04 0.2 -0.04 c0.04 0.04 0.08 0 0.12 0 l0.24 0 c0.2 0 0.84 0.04 1.04 0.12 c0.24 0.08 0.52 0.2 0.72 0.32 l0 0.04 c0.4 0.32 0.76 0.68 0.96 1.2 c0.08 0.12 0.12 0.24 0.12 0.36 c0 0.04 0.04 0.08 0.04 0.16 c0.04 0.08 0.08 0.2 0.08 0.32 c0 0.08 0.04 0.16 0.04 0.24 s0 0.16 0.04 0.2 c0 0.04 0 0.12 -0.04 0.16 l0 0.12 c0.04 0.12 0 0.2 0 0.28 c0 0.12 -0.04 0.2 -0.04 0.28 c-0.2 0.88 -0.48 1.92 -0.96 2.76 c-0.08 0.16 -0.16 0.36 -0.28 0.52 c0.16 0.08 0.36 0.16 0.56 0.16 l0.04 0 c0.24 0 0.28 0 0.48 -0.08 c0.8 -0.24 1.8 -1.36 2.44 -1.92 c0.2 -0.16 0.4 -0.44 0.6 -0.56 l0.08 0 c0.08 0 0.08 0.04 0.12 0.04 c0.04 0.04 0.04 0.04 0.04 0.08 z M99.56 33.12 c0.12 0.4 0.12 1.24 0.32 1.6 c0.12 -0.24 0.52 -0.88 0.64 -1.24 c0.16 -0.52 0.4 -1.6 0.4 -1.68 c0.04 -0.64 0 -1.32 -0.32 -1.88 c0 -0.04 0 -0.04 -0.04 -0.08 c-0.2 -0.32 -0.52 -0.52 -0.84 -0.72 c-0.2 -0.12 -0.84 -0.2 -1.08 -0.16 l-0.36 0.12 l-0.32 0.2 c-0.16 0.16 -0.32 0.28 -0.48 0.48 l-0.24 0.24 l-0.72 0.76 c-0.16 0.16 -0.24 0.32 -0.4 0.48 l-0.32 0.36 c-0.08 0.16 -0.2 0.28 -0.28 0.4 c-0.12 0.16 -0.48 0.84 -0.56 1 c-0.16 0.2 -0.28 0.4 -0.4 0.6 s-0.24 0.44 -0.4 0.64 c0 0.04 -0.04 0.08 -0.04 0.16 c-0.2 0.32 -0.36 0.68 -0.48 1.04 l-0.08 0.16 c-0.32 0.88 -0.48 1.84 -0.2 2.72 c0.08 0.32 0.24 0.6 0.44 0.84 c0.2 0.08 0.8 0.12 1 0.12 c0.52 0 1.56 -0.56 2 -1 c0.8 -0.64 1.56 -1.36 2.16 -2.16 c0.16 -0.2 0.32 -0.4 0.44 -0.6 c-0.28 -0.12 -0.64 -0.48 -0.88 -0.68 c-0.56 -0.44 -0.6 -1.2 -0.32 -1.8 c0.08 -0.16 0.2 -0.28 0.36 -0.36 s0.32 -0.12 0.44 -0.08 c0.28 0.04 0.48 0.28 0.56 0.52 z M116.16 32.88 l0 0.16 c0.04 0.08 -0.04 0.16 -0.12 0.24 l0 0.04 s0 0.04 -0.04 0.04 l-0.52 0.68 c-0.64 0.6 -1.56 1.6 -3.24 1.72 c-0.28 0 -0.52 -0.04 -0.76 -0.08 c0 0 -0.04 0.04 -0.04 0.08 c-0.08 0.16 -0.2 0.28 -0.28 0.4 l-0.52 0.72 l-0.44 0.52 c-0.08 0.12 -0.2 0.2 -0.28 0.36 c-0.08 0.08 -0.16 0.16 -0.24 0.2 s-0.12 0.12 -0.16 0.16 l-0.52 0.44 c-0.2 0.16 -0.4 0.32 -0.6 0.44 c-0.16 0.08 -0.32 0.2 -0.52 0.28 c-0.08 0 -0.12 0.08 -0.16 0.12 c-0.28 0.08 -0.52 0.2 -0.76 0.32 c-0.2 0.04 -0.4 0.08 -0.56 0.16 c-0.48 0 -0.96 0.08 -1.48 0 c-0.04 0 -0.08 -0.04 -0.2 -0.04 c-0.2 -0.12 -0.4 -0.2 -0.56 -0.32 c-0.44 -0.32 -0.84 -0.72 -1.08 -1.28 l-0.12 -0.36 c0 -0.04 0 -0.08 -0.04 -0.12 c-0.04 -0.12 -0.04 -0.24 -0.04 -0.36 c-0.04 -0.08 -0.08 -0.16 -0.04 -0.24 c0 -0.08 0 -0.12 -0.04 -0.2 l0 -0.16 c0.04 -0.04 0.04 -0.08 0.04 -0.12 c-0.04 -0.12 0 -0.2 0 -0.28 s0 -0.2 0.04 -0.28 c0.04 -0.16 0.04 -0.32 0.12 -0.48 c0 -0.2 0.12 -0.4 0.12 -0.6 l0.16 -0.4 c0.08 -0.2 0.16 -0.4 0.28 -0.6 l0.24 -0.52 c0 -0.04 0.08 -0.08 0.08 -0.16 c0.04 -0.12 0.16 -0.2 0.2 -0.32 l0.16 -0.28 c0.08 -0.16 0.4 -0.8 0.52 -0.92 c0.16 -0.24 0.32 -0.48 0.52 -0.72 c0.12 -0.16 0.28 -0.32 0.4 -0.52 c0.12 -0.12 0.24 -0.2 0.32 -0.36 c0.08 -0.08 0.16 -0.16 0.24 -0.2 l0.16 -0.16 l0.48 -0.44 l0.64 -0.44 c0.16 -0.08 0.32 -0.2 0.52 -0.28 c0.04 0 0.12 -0.08 0.16 -0.08 l0.76 -0.32 c0.2 -0.08 0.4 -0.12 0.56 -0.2 c0.08 0 0.16 0.04 0.2 -0.04 c0.04 0.04 0.08 0 0.12 0 l0.24 0 c0.2 0 0.84 0.04 1.04 0.12 c0.24 0.08 0.52 0.2 0.72 0.32 l0 0.04 c0.4 0.32 0.76 0.68 0.96 1.2 c0.08 0.12 0.12 0.24 0.12 0.36 c0 0.04 0.04 0.08 0.04 0.16 c0.04 0.08 0.08 0.2 0.08 0.32 c0 0.08 0.04 0.16 0.04 0.24 s0 0.16 0.04 0.2 c0 0.04 0 0.12 -0.04 0.16 l0 0.12 c0.04 0.12 0 0.2 0 0.28 c0 0.12 -0.04 0.2 -0.04 0.28 c-0.2 0.88 -0.48 1.92 -0.96 2.76 c-0.08 0.16 -0.16 0.36 -0.28 0.52 c0.16 0.08 0.36 0.16 0.56 0.16 l0.04 0 c0.24 0 0.28 0 0.48 -0.08 c0.8 -0.24 1.8 -1.36 2.44 -1.92 c0.2 -0.16 0.4 -0.44 0.6 -0.56 l0.08 0 c0.08 0 0.08 0.04 0.12 0.04 c0.04 0.04 0.04 0.04 0.04 0.08 z M111.04 33.12 c0.12 0.4 0.12 1.24 0.32 1.6 c0.12 -0.24 0.52 -0.88 0.64 -1.24 c0.16 -0.52 0.4 -1.6 0.4 -1.68 c0.04 -0.64 0 -1.32 -0.32 -1.88 c0 -0.04 0 -0.04 -0.04 -0.08 c-0.2 -0.32 -0.52 -0.52 -0.84 -0.72 c-0.2 -0.12 -0.84 -0.2 -1.08 -0.16 l-0.36 0.12 l-0.32 0.2 c-0.16 0.16 -0.32 0.28 -0.48 0.48 l-0.24 0.24 l-0.72 0.76 c-0.16 0.16 -0.24 0.32 -0.4 0.48 l-0.32 0.36 c-0.08 0.16 -0.2 0.28 -0.28 0.4 c-0.12 0.16 -0.48 0.84 -0.56 1 c-0.16 0.2 -0.28 0.4 -0.4 0.6 s-0.24 0.44 -0.4 0.64 c0 0.04 -0.04 0.08 -0.04 0.16 c-0.2 0.32 -0.36 0.68 -0.48 1.04 l-0.08 0.16 c-0.32 0.88 -0.48 1.84 -0.2 2.72 c0.08 0.32 0.24 0.6 0.44 0.84 c0.2 0.08 0.8 0.12 1 0.12 c0.52 0 1.56 -0.56 2 -1 c0.8 -0.64 1.56 -1.36 2.16 -2.16 c0.16 -0.2 0.32 -0.4 0.44 -0.6 c-0.28 -0.12 -0.64 -0.48 -0.88 -0.68 c-0.56 -0.44 -0.6 -1.2 -0.32 -1.8 c0.08 -0.16 0.2 -0.28 0.36 -0.36 s0.32 -0.12 0.44 -0.08 c0.28 0.04 0.48 0.28 0.56 0.52 z M132.96 18.56 c0.04 0.08 0.12 0.16 0.08 0.28 c0 0.08 -0.04 0.2 -0.12 0.28 l-0.08 0.16 c-0.08 0.16 -0.16 0.36 -0.28 0.48 c-0.12 0.16 -0.2 0.32 -0.28 0.48 c-0.04 0.16 -0.12 0.32 -0.2 0.48 s-0.2 0.28 -0.24 0.4 c-0.08 0.16 -0.2 0.28 -0.28 0.4 l-0.28 0.52 l-0.4 0.68 c-0.08 0.12 -0.16 0.24 -0.2 0.36 c-0.08 0.16 -0.16 0.32 -0.28 0.48 l-0.4 0.68 c-0.16 0.32 -0.32 0.64 -0.52 0.92 l-0.24 0.4 l-0.56 1.04 c-0.16 0.28 -0.32 0.56 -0.44 0.88 l-0.24 0.4 c-0.16 0.32 -0.36 0.64 -0.6 0.96 l-0.16 0.28 c-0.04 0.12 -0.32 0.6 -0.4 0.72 l-0.28 0.48 l-0.08 0.16 l-0.24 0.44 l-0.24 0.36 l-0.36 0.68 c-0.16 0.28 -0.28 0.56 -0.44 0.8 l-0.56 1 c-0.16 0.28 -0.28 0.6 -0.44 0.92 c-0.16 0.2 -0.24 0.44 -0.36 0.68 l-0.16 0.32 c-0.12 0.24 -0.2 0.48 -0.28 0.72 l-0.12 0.48 c-0.04 0.08 -0.04 0.16 -0.04 0.2 c0 0.16 -0.04 0.32 -0.04 0.52 c0 0.12 0.04 0.28 0.08 0.4 c0 0.08 0.08 0.16 0.16 0.24 l0.12 0.16 c0.08 0.04 0.16 0.08 0.24 0.08 c0.16 0 0.28 0 0.44 -0.04 c0.08 0 0.12 -0.04 0.2 -0.08 c0.2 -0.08 0.36 -0.24 0.52 -0.36 c0.16 -0.16 0.32 -0.28 0.44 -0.44 c0.28 -0.32 0.56 -0.6 0.8 -0.96 c0.08 -0.16 0.24 -0.28 0.36 -0.44 c0.08 -0.16 0.2 -0.24 0.28 -0.4 c0.04 -0.08 0.12 -0.16 0.2 -0.2 l0.48 -0.64 c0.16 -0.16 0.28 -0.36 0.4 -0.52 l0.44 -0.6 c0.16 -0.24 0.32 -0.52 0.52 -0.76 l0.24 -0.28 s0.04 -0.04 0.08 0 s0.04 0.04 0.08 0.04 c0.08 0 0.08 0 0.12 0.04 c0.04 0 0.04 0.04 0.04 0.04 c0 0.08 0.04 0.16 0 0.24 c-0.04 0.16 -0.16 0.28 -0.24 0.4 c-0.2 0.24 -0.36 0.48 -0.52 0.72 l-0.52 0.76 c-0.2 0.24 -0.36 0.48 -0.52 0.76 l-0.48 0.64 c-0.08 0.04 -0.12 0.12 -0.16 0.2 c-0.2 0.24 -0.36 0.44 -0.6 0.68 l-0.68 0.72 c-0.12 0.16 -0.24 0.32 -0.4 0.44 l-0.84 0.76 l-0.16 0.08 l-0.44 0.24 c-0.2 0.12 -0.4 0.2 -0.64 0.24 c-0.12 0 -0.2 0.04 -0.32 0.04 c-0.16 0 -0.28 -0.04 -0.36 -0.08 c-0.12 -0.04 -0.24 -0.08 -0.36 -0.08 l-0.24 -0.12 l-0.28 -0.2 c-0.24 -0.2 -0.4 -0.48 -0.56 -0.76 c-0.12 -0.28 -0.2 -0.56 -0.16 -0.88 c0.04 -0.12 0.04 -0.28 0.04 -0.4 l0 -0.12 c0 -0.08 0.04 -0.08 0 -0.16 c0 0.04 -0.04 0.08 -0.08 0.08 l-0.48 0.56 l-0.88 0.92 l-0.36 0.28 c-0.08 0.08 -0.16 0.16 -0.28 0.2 c-0.24 0.16 -0.48 0.32 -0.72 0.44 c-0.32 0.16 -0.64 0.32 -0.96 0.44 c-0.12 0.04 -0.24 0.04 -0.36 0.04 l-0.32 0 c-0.24 0 -0.44 -0.04 -0.64 -0.12 c-0.08 0 -0.12 0 -0.16 -0.04 c-0.2 -0.04 -0.36 -0.16 -0.52 -0.28 c-0.24 -0.12 -0.4 -0.32 -0.52 -0.56 c-0.08 -0.04 -0.12 -0.16 -0.16 -0.24 c-0.08 -0.2 -0.16 -0.4 -0.2 -0.6 l-0.08 -0.44 l0 -0.36 c0 -0.08 0.04 -0.16 -0.04 -0.24 c0.08 -0.12 0 -0.24 0.08 -0.36 l0 -0.08 c0 -0.2 0.04 -0.4 0.08 -0.6 l0.12 -0.6 l0.12 -0.32 c0.04 -0.24 0.16 -0.48 0.24 -0.72 l0.2 -0.4 c0.08 -0.16 0.16 -0.32 0.2 -0.48 c0.12 -0.12 0.16 -0.28 0.28 -0.4 l0 -0.04 c0.04 -0.12 0.12 -0.2 0.2 -0.32 c0.04 -0.12 0.16 -0.24 0.2 -0.36 l0.56 -0.72 l0.44 -0.52 l0.28 -0.36 c0.12 -0.12 0.24 -0.2 0.36 -0.28 c0.16 -0.2 0.36 -0.36 0.56 -0.52 l0.56 -0.4 c0.16 -0.08 0.32 -0.2 0.52 -0.28 l0.28 -0.12 c0.2 -0.12 0.4 -0.2 0.64 -0.28 c0.16 -0.08 0.36 -0.12 0.56 -0.2 l0.2 0 c0.12 -0.04 0.24 -0.04 0.36 -0.04 c0.16 -0.04 0.36 -0.04 0.56 -0.04 l0.16 0 c0.28 -0.04 0.56 0.08 0.8 0.16 c0.2 0.08 0.4 0.2 0.56 0.4 c0.12 0.12 0.2 0.28 0.24 0.44 s0.08 0.32 0.08 0.48 c0 0.12 0.04 0.24 0.04 0.36 c0 0.04 0.04 0.08 0.04 0.12 s0.04 0.04 0.04 0.04 l0.08 -0.08 c0 -0.08 0.04 -0.12 0.08 -0.2 c0.12 -0.16 0.24 -0.32 0.32 -0.52 l0.36 -0.56 c0.12 -0.2 0.24 -0.4 0.4 -0.56 c0.04 -0.12 0.12 -0.24 0.2 -0.36 l0.6 -1.16 l0.32 -0.52 l0.24 -0.36 l0.16 -0.32 l0.48 -0.76 l0.28 -0.52 c0.16 -0.28 0.28 -0.56 0.36 -0.84 l0.08 -0.16 c0.16 -0.2 0.28 -0.44 0.4 -0.68 l0.28 -0.4 l0.2 -0.32 c0.12 -0.32 0.32 -0.6 0.52 -0.88 l0.04 -0.04 l0.24 -0.44 l0.12 -0.28 l0.36 -0.72 l0.28 -0.44 c0.04 -0.08 0.08 -0.16 0.16 -0.24 l0.12 -0.16 l0.24 -0.52 c0.08 -0.16 0.2 -0.2 0.32 -0.24 c0.16 -0.08 0.28 -0.12 0.44 -0.16 l0.72 0 c0.12 0 0.28 0.04 0.4 0.08 c0.16 0.04 0.28 0.16 0.36 0.28 z M123.16000000000001 31.8 c0 -0.2 0.04 -0.36 0.04 -0.52 l0 -0.72 c0 -0.16 -0.04 -0.28 -0.08 -0.44 c-0.04 -0.2 -0.16 -0.36 -0.28 -0.52 c-0.04 -0.08 -0.12 -0.16 -0.24 -0.2 c-0.04 0 -0.08 0 -0.16 -0.04 c-0.08 0 -0.16 -0.04 -0.24 -0.04 c-0.16 -0.04 -0.32 0 -0.48 0.04 c-0.24 0.04 -0.44 0.12 -0.64 0.24 c-0.36 0.16 -0.64 0.44 -0.92 0.68 c-0.08 0.12 -0.16 0.24 -0.28 0.32 l-0.68 0.76 c-0.04 0 -0.04 0 -0.04 0.04 l-0.36 0.44 l-0.48 0.56 c-0.2 0.24 -0.4 0.56 -0.56 0.84 l-0.32 0.48 l-0.36 0.64 c-0.16 0.28 -0.28 0.56 -0.4 0.84 c-0.08 0.16 -0.16 0.32 -0.2 0.52 c-0.04 0.12 -0.08 0.24 -0.08 0.4 c-0.04 0.12 -0.08 0.24 -0.08 0.4 c0 0.12 -0.04 0.24 -0.04 0.36 l0 0.76 c0.04 0.2 0.08 0.4 0.16 0.6 c0.08 0.24 0.24 0.44 0.48 0.6 c0.12 0.08 0.28 0.16 0.44 0.2 c0.2 0 0.4 0 0.56 -0.08 l0.08 -0.04 c0.08 0 0.12 0 0.16 -0.04 c0.32 -0.2 0.6 -0.32 0.88 -0.56 c0.24 -0.2 0.48 -0.36 0.72 -0.6 c0.12 -0.12 0.24 -0.24 0.32 -0.4 c0.2 -0.2 0.32 -0.4 0.48 -0.64 c0.12 -0.12 0.2 -0.28 0.28 -0.4 l0.4 -0.56 c0.16 -0.24 0.28 -0.52 0.4 -0.76 c0.16 -0.24 0.28 -0.52 0.4 -0.8 c0.12 -0.2 0.24 -0.44 0.32 -0.68 l0.08 -0.12 l0.2 -0.36 c0.12 -0.24 0.28 -0.48 0.4 -0.76 c0.04 -0.16 0.04 -0.32 0.12 -0.44 z">
        </path>
    </g>
    <g id="SvgjsG2646" featurekey="sloganFeature-0"
        transform="matrix(1.2908875942230225,0,0,1.2908875942230225,34.11819520128894,202.00766282628712)"
        fill="#f5f3f3">
        <path
            d="M10.898 20 l-1.2305 -3.418 l-6.3184 0 l-1.2305 3.418 l-1.4355 0 l5.0195 -13.623 l1.6016 0 l5.0195 13.623 l-1.4258 0 z M3.7988 15.3418 l5.4199 0 l-2.7148 -7.5391 z M36.14113515625 20.18555 c-3.7598 0 -6.709 -2.5488 -6.709 -6.9629 c0 -4.4336 2.9492 -7.0313 6.7188 -7.0313 c2.4219 0 4.5508 1.0645 5.7227 3.1641 l-1.2012 0.64453 c-0.94727 -1.7188 -2.6367 -2.5098 -4.5215 -2.5098 c-2.998 0 -5.3516 2.0313 -5.3516 5.7129 s2.3438 5.7031 5.3906 5.7031 c2.666 0 4.6191 -1.5723 4.8926 -4.5117 l-4.9023 0 l0 -1.1914 l6.25 0 l0 6.7969 l-1.1426 0 l0 -2.793 c-0.91797 1.9043 -2.7344 2.9785 -5.1465 2.9785 z M52.585646484375 18.75 l4.8828 0 l0 1.25 l-6.2402 0 l0 -13.623 l1.3574 0 l0 12.373 z M71.0712453125 20.18555 c-3.7695 0 -6.7188 -2.6172 -6.7188 -7.002 c0 -4.375 2.9492 -6.9922 6.7188 -6.9922 c3.7402 0 6.709 2.6172 6.709 6.9922 c0 4.3848 -2.9688 7.002 -6.709 7.002 z M71.0712453125 18.877 c2.9688 0 5.3418 -2.041 5.3418 -5.6934 c0 -3.6328 -2.373 -5.6641 -5.3418 -5.6641 c-2.9785 0 -5.3711 2.0313 -5.3711 5.6641 c0 3.6523 2.3926 5.6934 5.3711 5.6934 z M92.525672265625 12.9199 c1.6211 0.41016 2.7051 1.582 2.7051 3.4277 c0 2.1191 -1.543 3.6523 -3.7207 3.6523 l-5.1953 0 l0 -13.623 l4.0332 0 c2.2656 0 3.877 1.4941 3.877 3.5547 c0 1.3477 -0.625 2.4512 -1.6992 2.9883 z M92.935772265625 10.0195 c0 -1.3574 -1.0059 -2.4219 -2.6074 -2.4219 l-2.6953 0 l0 4.8926 l3.0859 0 c1.2598 0 2.2168 -1.123 2.2168 -2.4707 z M91.304972265625 18.7598 c1.5625 0 2.6074 -1.1621 2.6074 -2.5391 c0 -1.4746 -1.1035 -2.5586 -2.7637 -2.5586 l-3.5156 0 l0 5.0977 l3.6719 0 z M112.28032421875 20 l-1.2305 -3.418 l-6.3184 0 l-1.2305 3.418 l-1.4355 0 l5.0195 -13.623 l1.6016 0 l5.0195 13.623 l-1.4258 0 z M105.18112421875 15.3418 l5.4199 0 l-2.7148 -7.5391 z M122.973341796875 18.75 l4.8828 0 l0 1.25 l-6.2402 0 l0 -13.623 l1.3574 0 l0 12.373 z M152.708258203125 6.377000000000001 l0 1.25 l-3.584 0 l0 12.373 l-1.3477 0 l0 -12.373 l-3.584 0 l0 -1.25 l8.5156 0 z M169.17192578125 20 l-1.2305 -3.418 l-6.3184 0 l-1.2305 3.418 l-1.4355 0 l5.0195 -13.623 l1.6016 0 l5.0195 13.623 l-1.4258 0 z M162.07272578125 15.3418 l5.4199 0 l-2.7148 -7.5391 z M182.618943359375 20.18555 c-2.8027 0 -4.7559 -1.3379 -5.2441 -3.4961 l1.3574 -0.33203 c0.37109 1.6309 1.9141 2.6074 3.9258 2.6074 c1.6406 0 3.3398 -0.64453 3.3008 -2.5781 c-0.029297 -1.8359 -1.9434 -2.3047 -3.916 -2.8125 c-2.1777 -0.55664 -4.2871 -1.1719 -4.2871 -3.6816 c0 -2.5195 2.1094 -3.7012 4.4238 -3.7012 c2.4023 0 4.4043 1.0352 4.9023 3.2129 l-1.3184 0.3418 c-0.39063 -1.6016 -1.875 -2.334 -3.5547 -2.334 c-1.4941 0 -3.0859 0.67383 -3.0859 2.4902 c0 1.6406 1.6211 2.0996 3.457 2.5586 c2.2461 0.55664 4.7559 1.1523 4.7559 3.9063 c0 2.6855 -2.2266 3.8184 -4.7168 3.8184 z M202.6474671875 6.377000000000001 l0 1.25 l-3.584 0 l0 12.373 l-1.3477 0 l0 -12.373 l-3.584 0 l0 -1.25 l8.5156 0 z M217.588134765625 7.627000000000001 l-5.7031 0 l0 4.9512 l5.0098 0 l0 1.2402 l-5.0098 0 l0 4.9316 l5.7031 0 l0 1.25 l-7.1094 0 l0 -13.623 l7.1094 0 l0 1.25 z">
        </path>
    </g>
</svg>